<svg width="35" height="25" viewBox="0 0 35 25" fill="none" xmlns="http://www.w3.org/2000/svg">
<path d="M0.514001 1.06212C0.514001 0.786936 0.664257 0.523022 0.931715 0.328437C1.19917 0.133853 1.56192 0.0245361 1.94017 0.0245361C2.31841 0.0245361 2.68116 0.133853 2.94862 0.328437C3.21608 0.523022 3.36633 0.786936 3.36633 1.06212V23.889C3.36633 24.1642 3.21608 24.4281 2.94862 24.6227C2.68116 24.8172 2.31841 24.9266 1.94017 24.9266C1.56192 24.9266 1.19917 24.8172 0.931715 24.6227C0.664257 24.4281 0.514001 24.1642 0.514001 23.889V1.06212Z" fill="white"/>
<path d="M29.4748 0.750811C31.6768 -0.397448 34.7422 0.748044 34.7422 2.71807V22.3948C34.7422 24.3095 31.8328 25.4661 29.6174 24.4326L9.70795 15.1414C9.25089 14.9279 8.8726 14.6363 8.60611 14.2919C8.33963 13.9476 8.19304 13.561 8.17916 13.166C8.16529 12.771 8.28453 12.3795 8.52649 12.0257C8.76844 11.6719 9.12576 11.3665 9.56724 11.1363L29.4748 0.750811ZM31.8898 2.71807C31.8898 2.65442 31.8657 2.59199 31.8201 2.53767C31.7745 2.48335 31.7092 2.43924 31.6313 2.41021C31.5534 2.38117 31.4661 2.36833 31.3788 2.3731C31.2916 2.37786 31.2078 2.40006 31.1368 2.43723L11.2273 12.8228C11.1645 12.8557 11.1137 12.8993 11.0794 12.9498C11.045 13.0003 11.0282 13.0561 11.0302 13.1125C11.0323 13.1688 11.0532 13.2239 11.0912 13.273C11.1292 13.322 11.1831 13.3636 11.2482 13.3941L31.1577 22.6867C31.2295 22.7202 31.3123 22.7391 31.3975 22.7413C31.4828 22.7435 31.5672 22.729 31.6421 22.6993C31.7169 22.6695 31.7794 22.6257 31.823 22.5724C31.8666 22.5191 31.8897 22.4582 31.8898 22.3962V2.71669V2.71807Z" fill="white"/>
</svg>
