<svg width="278" height="64" viewBox="0 0 278 64" fill="none" xmlns="http://www.w3.org/2000/svg">
<path d="M26.5 9C11.8879 9 0 21.3365 0 36.5C0 51.6635 11.8879 64 26.5 64C41.1121 64 53 51.6635 53 36.5C53 21.3365 41.1121 9 26.5 9ZM47.5172 33.75H40.1926C39.8656 27.7309 38.2429 21.8644 35.4438 16.5817C38.6879 18.1549 41.496 20.5538 43.6069 23.5555C45.7178 26.5572 47.0629 30.064 47.5172 33.75ZM27.9045 14.5742C30.6473 18.3252 34.3361 24.9692 34.8661 33.75H18.6295C18.9978 26.611 21.2636 19.923 25.1247 14.5715C25.5805 14.544 26.0362 14.5 26.5 14.5C26.9744 14.5 27.4381 14.544 27.9045 14.5742ZM17.7232 16.4993C15.1156 21.6995 13.6104 27.5955 13.3295 33.75H5.48285C5.94069 30.0316 7.30508 26.4958 9.44697 23.4771C11.5889 20.4585 14.4374 18.0568 17.7232 16.4993ZM5.48285 39.25H13.364C13.7244 45.7922 15.1262 51.5645 17.4874 56.3825C14.2602 54.8038 11.4685 52.4065 9.37029 49.412C7.27211 46.4175 5.93511 42.9225 5.48285 39.25ZM25.0425 58.4258C21.3298 53.7563 19.1383 47.214 18.6587 39.25H34.8581C34.3069 46.8758 31.898 53.539 27.9601 58.423C27.4778 58.456 26.9956 58.5 26.5 58.5C26.0071 58.5 25.5274 58.456 25.0425 58.4258ZM35.6717 56.3027C38.2024 51.3692 39.7474 45.575 40.1528 39.25H47.5145C47.0673 42.8918 45.7495 46.3596 43.6811 49.338C41.6127 52.3163 38.8593 54.7105 35.6717 56.3027Z" fill="black"/>
<path d="M82.112 19.544H71.696V53H82.112C93.104 53 99.872 46.712 99.872 36.344C99.872 25.976 93.104 19.544 82.112 19.544ZM76.064 49.4V23.096H82.112C90.848 23.096 95.408 28.184 95.408 36.344C95.408 44.504 90.848 49.4 82.112 49.4H76.064ZM105.634 53H110.002V26.696H105.634V53ZM107.89 22.424C109.474 22.424 110.77 21.128 110.77 19.448C110.77 17.768 109.474 16.472 107.89 16.472C106.21 16.472 104.914 17.768 104.914 19.448C104.914 21.128 106.21 22.424 107.89 22.424ZM136.358 45.848C136.166 36.44 120.902 39.848 120.902 33.608C120.902 31.496 122.822 29.96 126.038 29.96C129.542 29.96 131.558 31.88 131.75 34.52H136.118C135.83 29.384 131.99 26.264 126.182 26.264C120.326 26.264 116.534 29.576 116.534 33.608C116.534 43.4 132.086 39.992 132.086 45.848C132.086 48.008 130.166 49.736 126.71 49.736C123.014 49.736 120.758 47.816 120.518 45.272H116.006C116.294 50.072 120.614 53.432 126.758 53.432C132.566 53.432 136.358 50.168 136.358 45.848ZM140.892 39.8C140.892 48.152 146.22 53.432 153.708 53.432C160.236 53.432 164.508 49.784 165.852 44.552H161.148C160.188 47.864 157.596 49.736 153.708 49.736C148.908 49.736 145.356 46.328 145.356 39.8C145.356 33.368 148.908 29.96 153.708 29.96C157.596 29.96 160.236 31.976 161.148 35.144H165.852C164.508 29.624 160.236 26.264 153.708 26.264C146.22 26.264 140.892 31.544 140.892 39.8ZM196.64 39.8C196.64 31.496 190.832 26.264 183.344 26.264C175.904 26.264 170.048 31.496 170.048 39.8C170.048 48.152 175.712 53.432 183.152 53.432C190.64 53.432 196.64 48.152 196.64 39.8ZM174.512 39.8C174.512 33.176 178.688 30.056 183.296 30.056C187.808 30.056 192.176 33.176 192.176 39.8C192.176 46.472 187.712 49.592 183.152 49.592C178.592 49.592 174.512 46.472 174.512 39.8ZM199.264 26.696L209.584 53H214.672L224.992 26.696H220.336L212.176 48.968L203.968 26.696H199.264ZM240.474 29.96C244.986 29.96 248.826 32.792 248.778 37.928H232.17C232.65 32.792 236.202 29.96 240.474 29.96ZM252.762 44.888H248.058C247.098 47.72 244.602 49.736 240.666 49.736C236.202 49.736 232.458 46.808 232.122 41.48H253.146C253.242 40.568 253.29 39.8 253.29 38.84C253.29 31.64 248.298 26.264 240.666 26.264C232.986 26.264 227.658 31.496 227.658 39.8C227.658 48.152 233.178 53.432 240.666 53.432C247.194 53.432 251.418 49.688 252.762 44.888ZM263.423 38.696C263.423 32.6 266.591 30.728 270.767 30.728H271.919V26.216C267.743 26.216 264.911 28.04 263.423 30.968V26.696H259.055V53H263.423V38.696Z" fill="black"/>
</svg>
