<svg width="31" height="26" viewBox="0 0 31 26" fill="none" xmlns="http://www.w3.org/2000/svg">
<path d="M30.3702 1.24144C30.3702 0.966257 30.2387 0.702343 30.0047 0.507759C29.7707 0.313174 29.4533 0.203857 29.1223 0.203857C28.7913 0.203857 28.4739 0.313174 28.2399 0.507759C28.0059 0.702343 27.8744 0.966257 27.8744 1.24144V24.0683C27.8744 24.3435 28.0059 24.6074 28.2399 24.802C28.4739 24.9966 28.7913 25.1059 29.1223 25.1059C29.4533 25.1059 29.7707 24.9966 30.0047 24.802C30.2387 24.6074 30.3702 24.3435 30.3702 24.0683V1.24144Z" fill="white"/>
<path d="M5.02945 0.930132C3.10269 -0.218127 0.420532 0.927365 0.420532 2.89739V22.5741C0.420532 24.4888 2.96625 25.6454 4.90466 24.6119L22.3254 15.3207C22.7253 15.1072 23.0563 14.8156 23.2895 14.4712C23.5226 14.1269 23.6509 13.7404 23.663 13.3453C23.6752 12.9503 23.5709 12.5588 23.3591 12.205C23.1474 11.8512 22.8348 11.5459 22.4485 11.3157L5.02945 0.930132ZM2.91634 2.89739C2.91632 2.83374 2.93743 2.77131 2.97734 2.71699C3.01725 2.66267 3.07442 2.61857 3.14255 2.58953C3.21067 2.56049 3.28712 2.54765 3.36346 2.55242C3.4398 2.55718 3.51308 2.57938 3.57523 2.61655L20.9959 13.0021C21.0509 13.035 21.0953 13.0787 21.1254 13.1291C21.1554 13.1796 21.1702 13.2355 21.1684 13.2918C21.1666 13.3481 21.1483 13.4032 21.115 13.4523C21.0818 13.5014 21.0346 13.543 20.9776 13.5734L3.55693 22.866C3.49413 22.8995 3.42165 22.9184 3.34709 22.9206C3.27252 22.9228 3.19862 22.9083 3.13312 22.8786C3.06761 22.8489 3.01293 22.8051 2.97479 22.7517C2.93665 22.6984 2.91646 22.6376 2.91634 22.5755V2.89601V2.89739Z" fill="white"/>
</svg>
