<svg width="238" height="66" viewBox="0 0 238 66" fill="none" xmlns="http://www.w3.org/2000/svg">
<path d="M27.5001 45.9813C27.5001 51.1386 31.4326 55.3333 36.2676 55.3333C41.1026 55.3333 45.0351 51.1386 45.0351 45.9813C45.0351 45.5093 44.9676 45.056 44.9026 44.6026H45.0001V18H50.0001V12.6666H42.5001C41.1176 12.6666 40.0001 13.8613 40.0001 15.3333V37.5546C38.8626 36.9786 37.6076 36.632 36.2676 36.632C31.4326 36.6293 27.5001 40.8266 27.5001 45.9813ZM6.10352e-05 15.3333H35.0001V20.6666H6.10352e-05V15.3333Z" fill="black"/>
<path d="M6.10352e-05 26H35.0001V31.3333H6.10352e-05V26ZM6.10352e-05 36.6667H22.5001V42H6.10352e-05V36.6667ZM6.10352e-05 47.3333H22.5001V52.6667H6.10352e-05V47.3333Z" fill="black"/>
<path d="M76.064 35.432V23.144H82.496C87.488 23.144 89.6 25.448 89.6 29.336C89.6 33.08 87.488 35.432 82.496 35.432H76.064ZM94.064 29.336C94.064 23.864 90.368 19.544 82.496 19.544H71.696V53H76.064V39.032H82.496C90.8 39.032 94.064 34.424 94.064 29.336ZM99.4929 53H103.861V17.48H99.4929V53ZM109.673 39.752C109.673 47.912 115.097 53.432 122.105 53.432C126.953 53.432 130.361 50.936 131.945 48.104V53H136.361V26.696H131.945V31.496C130.409 28.76 127.049 26.264 122.153 26.264C115.097 26.264 109.673 31.544 109.673 39.752ZM131.945 39.8C131.945 45.992 127.817 49.592 123.017 49.592C118.217 49.592 114.137 45.944 114.137 39.752C114.137 33.56 118.217 30.056 123.017 30.056C127.817 30.056 131.945 33.704 131.945 39.8ZM153.727 48.008L145.471 26.696H140.623L151.231 52.712L146.047 65.384H150.559L166.399 26.696H161.887L153.727 48.008ZM170.79 53H175.158V17.48H170.79V53ZM182.602 53H186.97V26.696H182.602V53ZM184.858 22.424C186.442 22.424 187.738 21.128 187.738 19.448C187.738 17.768 186.442 16.472 184.858 16.472C183.178 16.472 181.882 17.768 181.882 19.448C181.882 21.128 183.178 22.424 184.858 22.424ZM213.327 45.848C213.135 36.44 197.871 39.848 197.871 33.608C197.871 31.496 199.791 29.96 203.007 29.96C206.511 29.96 208.527 31.88 208.719 34.52H213.087C212.799 29.384 208.959 26.264 203.151 26.264C197.295 26.264 193.503 29.576 193.503 33.608C193.503 43.4 209.055 39.992 209.055 45.848C209.055 48.008 207.135 49.736 203.679 49.736C199.983 49.736 197.727 47.816 197.487 45.272H192.975C193.263 50.072 197.583 53.432 203.727 53.432C209.535 53.432 213.327 50.168 213.327 45.848ZM220.453 45.8C220.453 51.08 223.093 53 227.749 53H231.685V49.304H228.469C225.781 49.304 224.821 48.392 224.821 45.8V30.296H231.685V26.696H224.821V20.072H220.453V26.696H217.045V30.296H220.453V45.8Z" fill="black"/>
</svg>
