<svg width="50" height="49" viewBox="0 0 50 49" fill="none" xmlns="http://www.w3.org/2000/svg">
<path d="M3.82539 48.7602C2.88598 48.7602 1.98504 48.397 1.32077 47.7505C0.656507 47.1039 0.283325 46.227 0.283325 45.3126V3.94148C0.283647 3.35404 0.438181 2.77642 0.732262 2.26344C1.02634 1.75045 1.45022 1.31912 1.96366 1.01035C2.47711 0.701592 3.0631 0.525651 3.66602 0.49922C4.26895 0.472788 4.86881 0.596746 5.4087 0.859332L47.9135 21.5449C48.5011 21.8315 48.9951 22.2716 49.3404 22.816C49.6857 23.3603 49.8685 23.9874 49.8685 24.6271C49.8685 25.2668 49.6857 25.8938 49.3404 26.4382C48.9951 26.9825 48.5011 27.4226 47.9135 27.7092L5.4087 48.3948C4.91717 48.6344 4.37513 48.7595 3.82539 48.7602ZM7.36746 9.51969V39.7344L38.4102 24.6271L7.36746 9.51969Z" fill="white"/>
</svg>
