<svg width="36" height="30" viewBox="0 0 36 30" fill="none" xmlns="http://www.w3.org/2000/svg">
<path fill-rule="evenodd" clip-rule="evenodd" d="M0.726196 5.02336C0.726196 4.73819 0.842585 4.4647 1.04976 4.26305C1.25693 4.0614 1.53791 3.94812 1.8309 3.94812H2.93561C7.80072 3.94812 11.391 6.61472 13.7043 9.14798C14.7869 10.335 15.6154 11.5178 16.1921 12.4425C16.7665 11.5178 17.5972 10.335 18.6799 9.14798C20.9931 6.61472 24.5834 3.94812 29.4485 3.94812V6.0986C25.476 6.0986 22.4381 8.27059 20.3325 10.5759C19.194 11.8311 18.2162 13.2161 17.4205 14.7005C18.2155 16.1849 19.1926 17.5699 20.3303 18.8251C22.4403 21.1305 25.4804 23.3024 29.4485 23.3024V25.4529C24.5834 25.4529 20.9931 22.7863 18.6799 20.2531C17.7508 19.2297 16.9182 18.1271 16.1921 16.9585C15.6176 17.8832 14.7869 19.066 13.7043 20.2531C11.391 22.7863 7.80072 25.4529 2.93561 25.4529H1.8309C1.53791 25.4529 1.25693 25.3396 1.04976 25.138C0.842585 24.9363 0.726196 24.6629 0.726196 24.3777C0.726196 24.0925 0.842585 23.819 1.04976 23.6174C1.25693 23.4157 1.53791 23.3024 1.8309 23.3024H2.93561C6.90812 23.3024 9.94606 21.1305 12.0516 18.8251C13.1901 17.57 14.1679 16.185 14.9636 14.7005C14.1686 13.2162 13.1916 11.8312 12.0538 10.5759C9.94385 8.27059 6.9037 6.0986 2.93561 6.0986H1.8309C1.53791 6.0986 1.25693 5.98532 1.04976 5.78367C0.842585 5.58202 0.726196 5.30853 0.726196 5.02336Z" fill="white"/>
<path d="M29.4485 9.25104V0.795354C29.4485 0.693198 29.4785 0.593168 29.5348 0.506976C29.5911 0.420785 29.6715 0.352 29.7666 0.308677C29.8616 0.265353 29.9674 0.249284 30.0715 0.262352C30.1756 0.275419 30.2737 0.317082 30.3543 0.382461L35.5685 4.61031C35.8337 4.82535 35.8337 5.22104 35.5685 5.43609L30.3543 9.66394C30.2737 9.72932 30.1756 9.77098 30.0715 9.78405C29.9674 9.79711 29.8616 9.78104 29.7666 9.73772C29.6715 9.6944 29.5911 9.62561 29.5348 9.53942C29.4785 9.45323 29.4485 9.3532 29.4485 9.25104ZM29.4485 28.6054V20.1497C29.4485 20.0475 29.4785 19.9475 29.5348 19.8613C29.5911 19.7751 29.6715 19.7063 29.7666 19.663C29.8616 19.6197 29.9674 19.6036 30.0715 19.6167C30.1756 19.6297 30.2737 19.6714 30.3543 19.7368L35.5685 23.9646C35.8337 24.1797 35.8337 24.5754 35.5685 24.7904L30.3543 29.0183C30.2737 29.0836 30.1756 29.1253 30.0715 29.1384C29.9674 29.1514 29.8616 29.1354 29.7666 29.092C29.6715 29.0487 29.5911 28.9799 29.5348 28.8937C29.4785 28.8076 29.4485 28.7075 29.4485 28.6054Z" fill="white"/>
</svg>
